<svg width="350" height="350" viewBox="0 0 350 350" fill="none" xmlns="http://www.w3.org/2000/svg">
<circle cx="175" cy="175" r="175" fill="black"/>
<path d="M76.6667 140.733C64.5333 163.8 54 183.8 39.2 211.8C34.1333 221.4 30 229.667 30 230.2C30 230.6 37.7333 231 47.2 231H64.4L71.3333 217.267C84.1333 192.2 94.4 173 95.4667 171.667C96.1333 171 96.6667 183.933 96.6667 200.733V231H113.733H130.667L142 209.267L153.333 187.667L153.733 209.267L154 231H173.867H193.6L207.2 205.267C214.8 191.267 221.467 179.133 222.133 178.467C222.8 177.667 223.333 187.8 223.333 204.067V231H243.067H262.667L272.533 211.933C277.867 201.533 290.933 176.733 301.467 156.733C312 136.867 320.667 120.2 320.667 119.8C320.667 119.4 312.933 119 303.467 119H286.4L271.333 147.933C263.067 163.933 255.867 177.533 255.2 178.2C254.533 179 254 166.733 254 149.267V119H237.067H220L204 149.4L188 179.667L187.6 149.267L187.333 119H172.133H156.933L143.333 144.6C135.867 158.733 129.2 170.867 128.533 171.533C127.867 172.333 127.333 161.933 127.333 145.933V119H107.733H88L76.6667 140.733Z" fill="white"/>
</svg>
