<?xml version="1.0" standalone="no"?>
<!DOCTYPE svg PUBLIC "-//W3C//DTD SVG 20010904//EN"
 "http://www.w3.org/TR/2001/REC-SVG-20010904/DTD/svg10.dtd">
<svg version="1.0" xmlns="http://www.w3.org/2000/svg"
 width="156.000000pt" height="156.000000pt" viewBox="0 0 156.000000 156.000000"
 preserveAspectRatio="xMidYMid meet">

<g transform="translate(0.000000,156.000000) scale(0.100000,-0.100000)"
fill="#000000" stroke="none">
<path d="M640 1515 c-158 -32 -268 -92 -386 -210 -77 -76 -98 -105 -137 -185
-99 -202 -112 -393 -40 -593 39 -108 90 -186 183 -278 71 -71 103 -94 181
-133 131 -64 200 -80 339 -80 139 0 208 16 340 81 80 39 109 61 186 137 76 77
98 106 137 186 64 130 81 200 81 340 1 139 -16 208 -80 339 -78 158 -233 298
-400 360 -129 49 -276 62 -404 36z m-260 -627 c17 -95 35 -186 39 -202 6 -26
17 -9 115 173 l108 201 59 0 c32 0 59 -2 59 -4 0 -3 -20 -121 -45 -263 -25
-142 -45 -259 -45 -260 0 -2 -20 -3 -45 -3 l-46 0 6 38 c4 20 20 104 36 186
17 81 29 150 27 151 -2 2 -50 -81 -107 -186 -101 -186 -103 -189 -136 -189
l-33 0 -38 200 c-21 110 -39 198 -41 197 -1 -2 -12 -66 -23 -143 -11 -76 -25
-165 -31 -196 l-12 -58 -43 0 c-24 0 -44 2 -44 5 0 3 20 120 45 261 25 140 45
257 45 259 0 3 26 5 59 5 l58 0 33 -172z m543 65 c4 -58 7 -139 7 -179 0 -40
4 -75 9 -78 4 -3 42 78 82 179 l74 185 37 0 c45 0 43 8 58 -200 7 -85 14 -162
17 -170 2 -8 35 71 72 175 l67 190 47 3 46 3 -13 -38 c-13 -35 -165 -436 -181
-475 -5 -13 -19 -18 -51 -18 -26 0 -44 5 -44 11 0 15 -30 339 -33 359 -1 8
-38 -72 -82 -177 l-80 -193 -42 0 c-42 0 -42 0 -47 43 -3 23 -10 119 -16 212
-6 94 -13 194 -16 223 l-5 52 44 0 44 0 6 -107z"/>
</g>
</svg>
