<svg width="200" height="199" viewBox="0 0 200 199" fill="none" xmlns="http://www.w3.org/2000/svg">
<path d="M46.9809 85.2603L46.9798 85.2542L42.5798 62.3209L42.5019 61.9151H42.0887H34.3554C32.1475 61.9151 30.1661 61.9819 28.731 62.1001C28.0164 62.159 27.4218 62.2317 26.9981 62.3192C26.7904 62.362 26.5968 62.4137 26.4446 62.4807C26.3703 62.5135 26.2763 62.5625 26.1934 62.6375C26.1145 62.7088 25.9991 62.8481 25.9894 63.0538C25.9888 63.0587 25.9877 63.0683 25.9855 63.084C25.9821 63.1093 25.9772 63.1433 25.9708 63.1862C25.9686 63.2008 25.9662 63.2164 25.9637 63.2331C25.9437 63.3641 25.9137 63.5526 25.8741 63.7963C25.7949 64.2834 25.6779 64.9865 25.5269 65.882C25.225 67.6727 24.7876 70.2303 24.246 73.3632C23.1629 79.629 21.663 88.1948 19.9965 97.5272L19.9964 97.5278C18.3296 106.929 16.8295 115.529 15.746 121.83C15.2042 124.981 14.7666 127.557 14.4643 129.37C14.3132 130.277 14.1957 130.994 14.116 131.498C14.0761 131.749 14.0455 131.949 14.0246 132.093C14.0143 132.165 14.006 132.225 14.0002 132.272C13.9961 132.306 13.9887 132.366 13.9887 132.415C13.9887 132.76 14.2638 132.936 14.3601 132.992C14.4947 133.069 14.6599 133.126 14.8247 133.171C15.1623 133.262 15.6259 133.336 16.1677 133.395C17.2584 133.515 18.7444 133.582 20.3554 133.582H26.0887H26.4959L26.5784 133.183L28.1784 125.45L28.1797 125.443C28.9822 121.297 30.8504 109.419 32.3169 99.2867L32.317 99.2858C33.0499 94.1561 33.7827 89.4596 34.3488 86.0128C34.5965 84.505 34.8121 83.2372 34.9817 82.2775C35.2858 83.5807 35.6947 85.4773 36.1824 87.8331C37.165 92.5795 38.4645 99.1765 39.8642 106.508L46.9809 85.2603ZM46.9809 85.2603C49.2484 97.9317 51.6454 110.047 52.1738 112.16L52.1739 112.16L52.1759 112.169C52.275 112.599 52.3706 112.868 52.4626 113.012C52.4761 113.033 52.4873 113.048 52.4959 113.058C52.5773 113.028 52.7632 112.914 53.0766 112.569C53.406 112.207 53.8188 111.656 54.3387 110.872C56.4226 107.73 60.0422 101.123 66.5818 88.978L80.9816 62.1784L81.1231 61.9151H81.4221H89.2887C91.4311 61.9151 93.4096 61.982 94.8569 62.083C95.5786 62.1333 96.178 62.1928 96.6026 62.2585C96.8116 62.2908 96.9974 62.3274 97.1393 62.371C97.2065 62.3917 97.2932 62.4225 97.373 62.4708L97.3734 62.4711C97.4141 62.4957 97.6554 62.6419 97.6554 62.9484C97.6554 62.9974 97.6481 63.0572 97.644 63.0912C97.6382 63.1382 97.6299 63.1988 97.6196 63.2711C97.5988 63.4163 97.5681 63.6176 97.5282 63.8711C97.4485 64.3785 97.3311 65.1014 97.18 66.0154C96.8777 67.8437 96.44 70.4405 95.8983 73.6158C94.8148 79.9668 93.3146 88.6343 91.6478 98.1018C89.9813 107.568 88.4814 116.201 87.3981 122.483C86.8565 125.625 86.4191 128.179 86.1171 129.955C85.9661 130.843 85.849 131.537 85.7697 132.013C85.73 132.251 85.6999 132.433 85.6798 132.558C85.6697 132.621 85.6623 132.668 85.6575 132.699L85.6538 132.725C85.6372 132.943 85.4967 133.075 85.4292 133.127C85.3505 133.187 85.266 133.223 85.2067 133.245C85.0824 133.29 84.9281 133.324 84.7683 133.35C84.4404 133.404 83.9825 133.447 83.4361 133.481C82.3381 133.548 80.8267 133.582 79.1554 133.582H73.0221H72.4369L72.5282 133.004L73.3282 127.937L73.3298 127.927L73.3318 127.917C73.5756 126.698 74.1536 123.696 74.9133 119.751C75.8151 115.068 76.9729 109.056 78.1313 103.119L78.1327 103.112C79.2652 97.7166 80.2308 92.7218 80.8797 89.0611C81.1926 87.2965 81.4311 85.8455 81.5794 84.8104C81.5139 84.9145 81.4454 85.0241 81.374 85.1391C80.622 86.351 79.5627 88.1413 78.272 90.3814C75.6913 94.8602 72.1934 101.123 68.3948 108.12L68.3948 108.12C61.672 120.501 58.2184 126.841 55.8947 130.074C54.7304 131.693 53.8056 132.599 52.8406 133.079C51.8687 133.563 50.9155 133.582 49.8221 133.582H45.4221H45.0081L44.9309 133.175L39.8643 106.509L46.9809 85.2603ZM121.135 110.128C121.303 109.87 121.514 109.507 121.766 109.043C122.392 107.891 123.236 106.169 124.235 104.006C126.23 99.6821 128.827 93.6241 131.491 86.8976L131.491 86.8961L141.358 62.2294L141.484 61.9151H141.822H146.755C146.968 61.9151 147.177 61.9137 147.38 61.9123C147.874 61.9089 148.335 61.9057 148.75 61.9239C149.341 61.9498 149.895 62.0198 150.396 62.2163C151.456 62.6318 152.117 63.5436 152.602 65.2084C153.084 66.8609 153.429 69.3731 153.778 73.1692C154.086 76.5079 154.4 80.8727 154.809 86.5712C154.867 87.369 154.926 88.1929 154.987 89.0437C155.454 94.7086 155.92 100.105 156.32 104.217C156.52 106.274 156.702 108.006 156.86 109.29C156.925 109.823 156.986 110.276 157.042 110.64C157.099 110.531 157.161 110.411 157.227 110.279C157.746 109.241 158.469 107.605 159.343 105.491C161.089 101.267 163.419 95.1761 165.884 88.2488L121.135 110.128ZM121.135 110.128C121.103 110.029 121.071 109.914 121.038 109.784C120.902 109.237 120.776 108.473 120.669 107.541C120.455 105.681 120.322 103.201 120.322 100.548C120.322 95.2018 119.922 84.392 119.388 76.6503C119.388 76.6493 119.388 76.6483 119.388 76.6474L118.588 62.3871L118.561 61.9151H118.089H112.222H106.355H105.805L105.858 62.4629L106.524 69.3963L106.525 69.3999C106.923 73.2544 107.856 86.576 108.656 99.1136L108.656 99.1139C109.456 111.5 110.39 124.316 110.792 127.41C110.793 127.411 110.793 127.412 110.793 127.413L110.796 127.437C110.959 128.844 111.087 129.941 111.274 130.773C111.462 131.611 111.729 132.271 112.235 132.734C112.743 133.199 113.417 133.395 114.252 133.489C115.078 133.582 116.15 133.582 117.523 133.582H117.555H123.155H123.489L123.617 133.273L134.283 107.542C134.283 107.541 134.284 107.54 134.284 107.54C137.216 100.544 139.913 94.3841 141.892 90.1085C142.883 87.9687 143.691 86.3088 144.257 85.2534C144.306 85.1604 144.354 85.0727 144.399 84.9905C144.773 88.4325 145.708 98.2224 146.608 107.978C147.132 113.669 147.645 119.339 148.026 123.711C148.409 128.103 148.655 131.144 148.655 131.615C148.655 132.084 149.001 132.406 149.319 132.605C149.66 132.819 150.124 132.993 150.664 133.133C151.751 133.413 153.262 133.582 155.022 133.582C157.168 133.582 158.772 133.416 159.939 133.003C161.135 132.58 161.892 131.888 162.287 130.867C164.435 125.628 184.692 72.1856 186.424 67.5225L186.429 67.5103L186.428 67.5103L188.162 62.4436L188.405 61.734L187.656 61.7828L181.524 62.1828L181.523 62.1828L175.257 62.5828L174.927 62.6038L174.817 62.9155L165.884 88.2475L121.135 110.128ZM81.2549 2.2384L81.2547 2.23846C60.2883 6.48482 45.709 14.4352 30.0423 30.102L30.04 30.1043C24.9101 35.1675 21.6667 38.645 19.0576 42.1787C16.4512 45.709 14.4668 49.3104 11.8715 54.6342L11.871 54.6351C-1.27341 81.4551 -2.99197 106.781 6.55918 133.312C11.731 147.634 18.487 157.972 30.8404 170.193L30.8423 170.195C35.5699 174.922 38.9819 178.034 42.5008 180.612C46.0173 183.187 49.6549 185.239 54.8436 187.834C63.5609 192.092 70.1891 194.741 76.9366 196.328C83.6836 197.916 90.574 198.448 99.8221 198.448C109.07 198.448 115.96 197.916 122.723 196.312C129.488 194.708 136.149 192.026 144.935 187.7L144.936 187.699C150.258 185.105 153.86 183.087 157.408 180.463C160.96 177.836 164.472 174.592 169.602 169.528C174.665 164.398 177.91 160.887 180.537 157.334C183.161 153.786 185.178 150.184 187.773 144.863L187.773 144.861C192.033 136.209 194.715 129.58 196.336 122.799C197.956 116.019 198.522 109.062 198.522 99.7484L198.522 99.7448C198.589 90.499 198.056 83.6099 196.452 76.8641C194.848 70.1162 192.166 63.4876 187.906 54.7679C177.563 33.8168 156.995 15.2393 134.848 7.01717L134.845 7.01584C117.728 0.514221 98.224 -1.20844 81.2549 2.2384Z" fill="white" stroke="black"/>
</svg>
