<svg width="1033" height="112" viewBox="0 0 1033 112" fill="none" xmlns="http://www.w3.org/2000/svg">
<path d="M788.667 21.7333C776.533 44.8 766 64.8 751.2 92.8C746.133 102.4 742 110.667 742 111.2C742 111.6 749.733 112 759.2 112H776.4L783.333 98.2667C796.133 73.2 806.4 54 807.467 52.6667C808.133 52 808.667 64.9333 808.667 81.7333V112H825.733H842.667L854 90.2667L865.333 68.6667L865.733 90.2667L866 112H885.867H905.6L919.2 86.2667C926.8 72.2667 933.467 60.1333 934.133 59.4667C934.8 58.6667 935.333 68.8 935.333 85.0667V112H955.067H974.667L984.533 92.9333C989.867 82.5333 1002.93 57.7333 1013.47 37.7333C1024 17.8667 1032.67 1.19999 1032.67 0.799994C1032.67 0.399994 1024.93 -5.84126e-06 1015.47 -5.84126e-06H998.4L983.333 28.9333C975.067 44.9333 967.867 58.5333 967.2 59.2C966.533 60 966 47.7333 966 30.2667V-5.84126e-06H949.067H932L916 30.4L900 60.6667L899.6 30.2667L899.333 -5.84126e-06H884.133H868.933L855.333 25.6C847.867 39.7333 841.2 51.8667 840.533 52.5333C839.867 53.3333 839.333 42.9333 839.333 26.9333V-5.84126e-06H819.733H800L788.667 21.7333Z" fill="black"/>
<path d="M36.9333 26.2667C34.4 30.1333 4.93334 79.6 2.13334 84.9333C-0.13333 89.3333 0.133337 89.4667 6.93334 89.0667C12.8 88.6667 13.3333 88.2667 16.6667 82.6667L20.1333 76.6667L34.2667 76.2667L48.4 75.8667L49.3333 82.6667L50.2667 89.3333H56.1333C61.8667 89.3333 62 89.2 62 84.9333C62 78.1333 58 26.1333 57.3333 24.2667C56.9333 23.2 53.8667 22.6667 48.1333 22.6667C40.2667 22.6667 39.3333 22.9333 36.9333 26.2667ZM48.1333 66.4C47.8667 66.5333 42.8 66.6667 36.9333 66.4L26.2667 66L35.7333 50L45.3333 34L46.9333 50C47.7333 58.8 48.2667 66.1333 48.1333 66.4Z" fill="black"/>
<path d="M87.8667 26.2666C87.4667 28.4 86.5334 31.7333 85.8667 34C80.6667 51.8666 76.6667 70.5333 76.6667 76.4C76.6667 87.3333 78.6667 88.5333 97.8667 89.0666C111.867 89.4666 113.867 89.2 119.333 86.4C127.333 82.2666 130 76.6666 137.333 47.8666C140.667 34.9333 143.333 23.8666 143.333 23.4666C143.333 21.8666 131.2 22.6666 130.8 24.2666C130.4 25.2 127.733 35.6 124.8 47.3333C118 73.4666 117.333 75.3333 113.2 77.2C109.467 78.8 94.1334 79.2 91.8667 77.6C88.8 75.4666 89.2 71.6 94.8 49.8666C98 37.4666 100.667 26.2666 100.667 24.9333C100.667 23.0666 99.4667 22.6666 94.6667 22.6666C89.2 22.6666 88.6667 22.9333 87.8667 26.2666Z" fill="black"/>
<path d="M152.133 26.2667C151.6 28.4 150.933 31.0667 150.533 32.2667C149.867 34.4 150.933 34.6667 159.333 34.6667H168.667L167.867 38.2667C167.333 40.4 164.4 52.1334 161.2 64.6667C158 77.0667 155.333 87.8667 155.333 88.4C155.333 88.9334 158.133 89.3334 161.733 89.0667L168 88.6667L173.067 68.6667C176 57.6 179.2 45.4667 180.267 41.6L182.133 34.6667H191.867H201.467L202.8 29.3334C203.6 26.4 204 23.7334 203.6 23.3334C203.2 22.9334 191.6 22.6667 177.867 22.6667H152.933L152.133 26.2667Z" fill="black"/>
<path d="M222.667 24.6667C213.733 28 208.533 36.6667 202.8 57.4667C195.733 83.7333 199.067 89.3333 222.267 89.3333C241.2 89.3333 248.533 85.6 254.4 72.9333C259.067 62.8 263.6 43.8667 263.067 35.8667C262.4 25.4667 259.067 23.4667 241.6 23.0667C232.133 22.8 226.4 23.3333 222.667 24.6667ZM247.467 34.6667C250.8 36.5333 250.8 41.3333 247.333 54.5333C242 75.4667 239.067 78.6667 224.8 78.6667C216.667 78.6667 212.667 76.6667 212.667 72.5333C212.667 68.6667 217.733 49.6 220.933 40.9333C221.733 38.9333 224 36.4 225.867 35.3333C229.867 33.0667 243.733 32.6667 247.467 34.6667Z" fill="black"/>
<path d="M280 24.2667C278.4 29.0667 263.333 87.3334 263.333 88.5334C263.333 89.0667 266.133 89.3334 269.6 89.0667L275.867 88.6667L282 63.7334C288 39.3334 289.867 33.6 290.133 40.1334C290.133 41.8667 291.467 53.4667 293.067 66L296 88.6667L301.6 89.0667C307.867 89.4667 306.133 91.7334 330 53.6C336 43.8667 341.067 36 341.333 36C341.6 36 340 42.8 337.867 50.9334C335.733 59.2 332.667 70.4 331.333 75.8667C327.733 89.4667 327.6 89.3334 334.667 89.3334C338 89.3334 340.667 89.0667 340.667 88.8C340.667 88.4 343.067 78.6667 346.133 67.0667C355.733 29.4667 356.667 26 356.667 24.2667C356.667 22.9334 354.133 22.6667 346.4 22.9334L336.133 23.3334L321.6 47.0667C313.6 60.1334 306.8 70.5334 306.4 70.2667C306.133 69.8667 300.933 27.2 300.667 22.9334C300.667 22.8 296.133 22.6667 290.667 22.6667C283.733 22.6667 280.4 23.2 280 24.2667Z" fill="black"/>
<path d="M380.667 25.0667C375.867 26.9333 373.867 28.8 370.267 34.6667C362.667 47.3333 356.133 73.6 358.8 80.9333C360.8 86.8 367.467 89.3333 380.667 89.3333C405.6 89.3333 411.6 83.8667 419.333 53.4667C424.133 34.4 422.533 26.6667 412.933 24C405.2 21.8667 387.6 22.5333 380.667 25.0667ZM406.133 34.6667C409.467 36.5333 409.467 41.3333 405.867 54.9333C400.8 75.2 397.467 78.6667 383.333 78.6667C375.333 78.6667 371.333 76.6667 371.333 72.5333C371.333 69.4667 377.867 44.5333 379.6 40.6667C380.533 38.6667 382.667 36.2667 384.533 35.3333C388.667 33.0667 402.4 32.8 406.133 34.6667Z" fill="black"/>
<path d="M432.8 25.6C429.2 35.2 428.933 34.6667 439.2 34.6667C444.4 34.6667 448.667 34.9333 448.667 35.2C448.667 36.4 443.6 56.9333 439.467 72.2667C437.2 80.8 435.333 88.1333 435.333 88.5333C435.333 88.9333 438.267 89.3333 441.867 89.3333H448.4L450 82.2667C450.933 78.5333 453.6 67.8667 456 58.6667C458.4 49.4667 460.667 40.4 461.2 38.2667C462 34.8 462.267 34.6667 471.867 34.6667C481.467 34.6667 481.733 34.5333 482.533 30.9333C483.067 28.9333 483.733 26.2667 484.133 24.9333C484.8 22.8 483.067 22.6667 459.333 22.6667C434.267 22.6667 433.867 22.6667 432.8 25.6Z" fill="black"/>
<path d="M503.6 24.5333C493.867 28 488 38 482.4 60.4C476.267 85.2 479.867 89.7334 504.667 89.0667C527.733 88.4 533.067 83.6 540.133 56.6667C546.133 33.6 544.933 27.0667 534.133 24C527.6 22.2667 509.067 22.5333 503.6 24.5333ZM528.4 34.9333C530.8 37.3333 530.267 44.8 526.8 57.7334C521.733 76.2667 519.2 78.6667 504.667 78.6667C491.2 78.6667 490.8 76.9334 497.6 52.6667C500.933 40.5333 503.2 36.5333 508 34.5333C512.133 32.9333 526.533 33.0667 528.4 34.9333Z" fill="black"/>
<path d="M558.8 29.6C557.867 33.4667 555.733 41.4667 554.133 47.3333C552.667 53.2 549.6 64.8 547.333 72.9333C545.2 81.2 543.333 88.2667 543.333 88.6667C543.333 89.2 546.133 89.3333 549.6 89.0667L555.733 88.6667L558.667 78L561.467 67.3333H573.067C580.4 67.3333 585.2 67.8667 586.133 68.9333C587.733 70.5333 587.2 74.5333 583.867 86.2667C583.067 89.2 583.467 89.3333 589.733 89.3333H596.4L598.8 79.3333C601.333 68.5333 600.267 62.6667 595.733 62.6667C594.267 62.5333 595.333 61.4667 598.4 59.8667C604.533 56.6667 608.533 48.8 609.6 38.1333C610.933 24.6667 607.067 22.6667 579.067 22.6667H560.8L558.8 29.6ZM594.8 36.2667C596.8 38.2667 596.8 39.2 595.333 44.6667C592.667 54 589.2 56 575.867 56C569.733 56 564.667 55.6 564.667 55.2C564.667 54.6667 565.2 52.1333 566 49.4667C566.667 46.8 568 42 568.8 38.9333L570.133 33.0667L581.333 33.6C589.6 33.8667 593.2 34.5333 594.8 36.2667Z" fill="black"/>
<path d="M626 23.3333C626 23.6 622.4 37.4667 618 54.2667C613.6 70.9333 610 85.6 610 86.9333C610 89.2 611.733 89.3333 631.867 89.3333C644 89.3333 654.133 88.9333 654.4 88.2667C654.8 87.7333 655.467 85.3333 656 82.9333L656.933 78.6667H640.667H624.4L625.333 74.2667C625.867 72 626.933 67.7333 627.6 64.9333L629.067 60H644.933C656.667 60 660.667 59.6 660.667 58.2667C660.667 57.4667 661.067 55.3333 661.467 53.6C662.267 50.6667 662.267 50.6667 646.8 50.6667H631.333L632.133 46.9333C632.667 44.9333 633.733 41.2 634.667 38.6667L636.267 34L652.267 33.6C668 33.2 668.4 33.2 669.2 30.1333C669.6 28.4 670.4 26 670.8 24.8C671.467 22.9333 669.067 22.6667 648.8 22.6667C636.267 22.6667 626 22.9333 626 23.3333Z" fill="black"/>
<path d="M692 24.2666C684.133 27.0666 680.4 32.4 678 43.7333C675.2 56.4 678.4 58.8 700 60.9333L710.667 62L711.067 66.8C711.333 70 710.533 72.5333 708.667 75.0667C706 78.4 705.067 78.6667 695.333 78.6667C683.733 78.6667 681.333 77.2 682.8 71.3333C683.6 67.8667 683.6 67.8667 677.2 68.2667C670.933 68.6667 670.667 68.8 669.6 73.7333C667.867 81.0667 670.4 86.2667 676.533 88C682.8 89.7333 702.667 89.7333 709.067 87.8667C718.133 85.4667 724.667 74.5333 724.667 62C724.667 53.7333 722 52 707.067 50.6667C700.267 50.1333 693.6 49.2 692.4 48.6667C689.333 47.4667 689.333 43.0667 692.533 37.7333C694.8 34.1333 696.133 33.4666 702.4 32.6666C713.467 31.2 718 33.3333 718 39.6C718 42.2666 718.667 42.6666 723.867 42.6666C728.8 42.6666 729.867 42.1333 730.533 39.6C732 34.2666 731.333 29.7333 728.8 26.5333C726.4 23.6 725.2 23.3333 711.067 23.0666C702.533 22.9333 694.267 23.3333 692 24.2666Z" fill="black"/>
</svg>
